<?xml version="1.0" encoding="UTF-8" standalone="no"?>
<svg
   xmlns:dc="http://purl.org/dc/elements/1.1/"
   xmlns:cc="http://creativecommons.org/ns#"
   xmlns:rdf="http://www.w3.org/1999/02/22-rdf-syntax-ns#"
   xmlns:svg="http://www.w3.org/2000/svg"
   xmlns="http://www.w3.org/2000/svg"
   xmlns:sodipodi="http://sodipodi.sourceforge.net/DTD/sodipodi-0.dtd"
   xmlns:inkscape="http://www.inkscape.org/namespaces/inkscape"
   viewBox="0 0 512 512"
   id="svg3007"
   version="1.1"
   inkscape:version="0.48.4 r9939"
   width="100%"
   height="100%"
   sodipodi:docname="aerial-signal.svg">
  <metadata
     id="metadata3027">
    <rdf:RDF>
      <cc:Work
         rdf:about="">
        <dc:format>image/svg+xml</dc:format>
        <dc:type
           rdf:resource="http://purl.org/dc/dcmitype/StillImage" />
      </cc:Work>
    </rdf:RDF>
  </metadata>
  <defs
     id="defs3025" />
  <sodipodi:namedview
     pagecolor="#ffffff"
     bordercolor="#666666"
     borderopacity="1"
     objecttolerance="10"
     gridtolerance="10"
     guidetolerance="10"
     inkscape:pageopacity="0"
     inkscape:pageshadow="2"
     inkscape:window-width="869"
     inkscape:window-height="535"
     id="namedview3023"
     showgrid="false"
     inkscape:zoom="0.65186406"
     inkscape:cx="251.29299"
     inkscape:cy="235.11859"
     inkscape:window-x="1820"
     inkscape:window-y="285"
     inkscape:window-maximized="0"
     inkscape:current-layer="svg3007" />
  <g
     transform="matrix(18.68858,0,0,18.68858,-2271.47212,-27219.60023)"
     id="g3011">
    <path
       d="m128.9375,1458.5625c-3.7835,2.1729-6.3438,6.2301-6.3438,10.9063 0,4.7012 2.5891,8.7735 6.4062,10.9374-2.5389-2.4985-4.1875-6.4501-4.1875-10.9374 0-4.4556 1.6168-8.4046 4.125-10.9063zm12.7188.125c2.4386,2.5074 4,6.3985 4,10.7813 0,4.3946-1.5814,8.2746-4.0312,10.7812 3.6753-2.1999 6.1562-6.1863 6.1562-10.7812s-2.4625-8.5784-6.125-10.7813z"
       fill="#fff"
       id="path3013" />
    <path
       d="m132.0625,1461.1875c-3.2867,1.3172-5.625,4.5239-5.625,8.2813 0,3.7676 2.3552,6.9708 5.6562,8.2812-2.2125-1.6188-3.7188-4.7189-3.7188-8.2812 0-3.5512 1.4865-6.6583 3.6875-8.2813zm7.625.4687c1.8825,1.7102 3.0938,4.5788 3.0938,7.8126 0,3.2711-1.2369,6.1407-3.1562,7.8437 2.7828-1.5117 4.6875-4.4541 4.6875-7.8437 0-3.3649-1.8755-6.2911-4.625-7.8126z"
       fill="#fff"
       id="path3015" />
    <path
       d="m133.5223,1464.0152c-2.2821.7673-3.9129,2.9136-3.9129,5.4544 0,2.5637 1.6579,4.7351 3.9722,5.484-1.4472-.9929-2.4604-3.0643-2.4604-5.484 0-2.385.9875-4.4449 2.4011-5.4544zm4.1797.1778c1.2755,1.0662 2.1047,3.036 2.1047,5.2766 0,2.2749-.8559,4.2516-2.164,5.3061 2.0556-.8809 3.4979-2.9281 3.4979-5.3061 0-2.3544-1.4157-4.3816-3.4386-5.2766z"
       fill="#fff"
       id="path3017" />
    <path
       d="m137.2229,1469.754c0,.9153-.742,1.6573-1.6573,1.6573s-1.6573-.742-1.6573-1.6573 .742-1.6573 1.6573-1.6573 1.6573.742 1.6573,1.6573z"
       fill="#fff"
       transform="matrix(1.18667,0,0,1.18667,-25.30872,-274.35408)"
       id="path3019" />
    <path
       d="m134.8333,1469.5994h1.4584v13.3908h-1.4584z"
       fill="#fff"
       id="path3021" />
  </g>
  <path
     style="fill:#b3b3b3;fill-opacity:1;stroke:none;stroke-width:1.53406215000000000;stroke-opacity:1"
     d="m 249.63641,388.20054 0,-105.7489 -6.45967,-4.33837 c -17.15841,-11.52372 -21.77664,-32.89409 -10.67937,-49.41754 15.06304,-22.42832 46.79288,-21.32812 60.22423,2.08822 9.77716,17.04558 4.00264,37.76277 -13.55449,48.62935 l -4.98571,3.08578 0,105.72517 0,105.72517 -12.27249,0 -12.2725,0 0,-105.74888 z"
     id="path3029"
     inkscape:connector-curvature="0" />
  <path
     style="fill:#b3b3b3;fill-opacity:1;stroke:none"
     d="m 316.53289,326.35313 c 15.87417,-21.55281 23.21012,-43.83992 24.66492,-74.93368 1.69515,-36.23078 -6.8873,-69.52823 -23.54621,-91.35259 -2.93068,-3.8394 -4.98464,-7.3246 -4.56435,-7.74488 1.53004,-1.53005 14.6099,8.85568 24.20529,19.2196 11.43849,12.35462 21.43624,31.03962 25.01731,46.75536 3.07024,13.47392 3.06024,37.06658 -0.0208,49.15688 -3.39476,13.32119 -12.97351,32.38166 -21.69749,43.17517 -6.5807,8.14181 -26.91142,25.31077 -29.97297,25.31169 -0.63105,1.9e-4 2.0304,-4.31421 5.91434,-9.58755 z"
     id="path3799"
     inkscape:connector-curvature="0" />
  <path
     style="fill:#b3b3b3;fill-opacity:1;stroke:none"
     d="m 351.79891,376.97718 c 0.60251,-1.05466 3.24983,-4.67889 5.88294,-8.05382 37.24909,-47.74335 49.69547,-124.79948 30.73302,-190.26946 -7.5456,-26.05202 -20.46182,-51.18359 -34.50479,-67.13724 -3.49494,-3.97047 -5.75179,-7.21903 -5.01521,-7.21903 0.73658,0 6.83562,4.41499 13.55342,9.81108 31.63559,25.41138 52.72516,61.25566 59.75329,101.55796 10.25308,58.7955 -12.48287,116.5837 -62.00531,157.59954 -6.85044,5.67373 -10.41974,7.25108 -8.39736,3.71097 z"
     id="path3801"
     inkscape:connector-curvature="0" />
  <path
     style="fill:#b3b3b3;fill-opacity:1;stroke:none"
     d="m 388.98737,429.90233 c 16.81084,-20.18011 34.7953,-52.7472 44.66561,-80.88248 18.93133,-53.9637 22.41813,-121.28786 9.32577,-180.06486 -8.85571,-39.75691 -26.04661,-77.455432 -49.10816,-107.690955 -5.11483,-6.705953 -8.76778,-12.18647 -8.11766,-12.178928 2.22384,0.0258 21.11446,15.425704 32.51085,26.503307 46.02903,44.741486 70.70477,102.887336 70.67728,166.543736 -0.005,11.51751 -1.00503,27.49903 -2.22236,35.51451 -7.2957,48.03865 -31.08886,94.85252 -65.93734,129.7341 -9.71434,9.72356 -34.36278,29.80836 -36.58138,29.80836 -0.70554,0 1.44879,-3.27905 4.78739,-7.28679 z"
     id="path3803"
     inkscape:connector-curvature="0" />
  <path
     style="fill:#b3b3b3;fill-opacity:1;stroke:none"
     d="m 204.91845,334.75559 c -10.26153,-6.04352 -21.0155,-15.05685 -28.64965,-24.0124 -7.33681,-8.60673 -18.99243,-31.5655 -21.47518,-42.30091 -6.37654,-27.57212 -2.05084,-56.00924 12.19853,-80.1932 7.30006,-12.38962 23.69902,-29.12148 35.22253,-35.93755 13.81193,-8.16964 15.03481,-7.82996 6.31436,1.75398 -9.72432,10.6872 -21.80703,34.78199 -25.65969,51.16938 -10.14872,43.16776 -1.28609,92.38714 21.81389,121.1453 10.27317,12.78952 10.16383,12.63127 8.70703,12.6028 -0.73611,-0.0138 -4.54843,-1.91672 -8.47182,-4.2274 z"
     id="path3805"
     inkscape:connector-curvature="0" />
  <path
     style="fill:#b3b3b3;fill-opacity:1;stroke:none"
     d="M 172.53083,383.88046 C 148.31472,368.87398 128.38934,348.53751 114.62805,324.78308 76.427387,258.84192 88.771534,175.88163 144.71189,122.60113 c 12.47572,-11.88253 35.03049,-27.507871 39.70689,-27.507871 0.49467,0 -3.46311,5.004881 -8.79508,11.121951 -21.05772,24.15837 -33.68407,48.81256 -41.72566,81.47346 -17.38626,70.6142 -0.57859,145.07221 43.59449,193.12367 5.23553,5.6952 8.90667,10.35492 8.15811,10.35492 -0.74857,0 -6.65248,-3.27906 -13.11981,-7.2868 z"
     id="path3807"
     inkscape:connector-curvature="0" />
  <path
     style="fill:#b3b3b3;fill-opacity:1;stroke:none"
     d="M 121.7483,434.92353 C 80.409824,406.32049 48.615693,363.75729 32.631741,315.62206 24.423429,290.90296 22.469258,279.33701 21.549968,250.03354 20.830063,227.08567 21.178785,220.43168 23.951537,204.20909 34.140265,144.59771 66.561187,91.798198 115.48148,55.14681 c 13.07446,-9.795462 17.49382,-11.74765 11.1489,-4.924869 -6.66787,7.170067 -20.26652,26.631726 -27.601715,39.502101 -41.1495,72.201128 -49.858782,170.592978 -22.473164,253.887288 11.375059,34.59763 31.567989,71.19328 50.153479,90.89318 6.67979,7.08031 4.88558,7.23186 -4.96068,0.41902 l 0,0 z"
     id="path3809"
     inkscape:connector-curvature="0" />
  <path
     style="fill:#b3b3b3;fill-opacity:1;stroke:none"
     d="m 164.95806,377.37034 c -31.18505,-21.82928 -54.65541,-54.29812 -65.039009,-89.9748 -16.469683,-56.5877 0.0434,-118.83942 42.667889,-160.85121 11.44696,-11.28242 35.63269,-29.711541 37.08561,-28.25862 0.32644,0.326437 -3.71864,6.0931 -8.98905,12.8148 -21.40467,27.29875 -32.33099,51.56837 -40.37958,89.69142 -3.78147,17.91132 -3.83556,63.94402 -0.0982,83.60639 6.77661,35.65248 22.19243,68.12092 45.70479,96.2624 2.64354,3.164 4.16745,5.75273 3.38646,5.75273 -0.78098,0 -7.23347,-4.0694 -14.33887,-9.04311 l 0,0 z"
     id="path3811"
     inkscape:connector-curvature="0" />
  <path
     style="fill:#b3b3b3;fill-opacity:1;stroke:none"
     d="M 114.31521,428.0635 C 76.491054,399.35244 48.607161,360.2065 33.179375,314.15764 c -8.62614,-25.7473 -10.004871,-35.80804 -9.964658,-72.71306 0.03562,-32.6849 0.186921,-34.3338 4.797186,-52.27901 10.45816,-40.70782 28.85245,-74.76603 56.628867,-104.851962 9.356273,-10.134216 36.94386,-33.859771 39.37145,-33.859771 0.7481,0 -1.68696,3.969386 -5.41124,8.820857 C 80.321646,109.13967 60.762465,171.00322 60.762465,242.21161 c 0,41.85464 5.633362,75.50082 18.521784,110.62438 10.121437,27.58296 25.366101,55.86912 39.388971,73.08542 3.72287,4.57068 6.4775,8.60167 6.12141,8.95778 -0.35609,0.35608 -5.07183,-2.71097 -10.47942,-6.81569 l 0,0 z"
     id="path3813"
     inkscape:connector-curvature="0" />
  <path
     style="fill:#b3b3b3;fill-opacity:1;stroke:none"
     d="m 199.31259,329.73305 c -25.90312,-17.29744 -44.26132,-48.83711 -46.0864,-79.17715 -1.99564,-33.17553 9.55538,-61.87 34.26238,-85.11284 8.89392,-8.36686 20.09543,-16.23497 21.3405,-14.9899 0.34939,0.34939 -1.84342,4.05236 -4.87291,8.22882 -7.32226,10.09445 -18.11805,32.91558 -21.12973,44.66596 -10.75429,41.9589 -1.90974,92.6751 21.55855,123.6206 3.67924,4.85147 6.08372,8.82086 5.3433,8.82086 -0.74042,0 -5.42748,-2.72535 -10.41569,-6.05635 z"
     id="path3815"
     inkscape:connector-curvature="0" />
  <path
     style="fill:#000000;fill-opacity:1;stroke:none"
     d="m 250.98617,388.16308 0,-105.63473 -7.9524,-5.96829 c -19.2183,-14.42339 -20.50153,-39.53859 -2.79456,-54.69509 19.49632,-16.68813 48.8346,-6.53299 55.28662,19.13689 2.57965,10.26332 -0.14478,20.61745 -7.67635,29.17376 -3.19673,3.63167 -7.62126,7.5712 -9.8323,8.75452 l -4.02007,2.15147 0,106.3581 0,106.35809 -11.50547,0 -11.50547,0 0,-105.63472 z"
     id="path3817"
     inkscape:connector-curvature="0" />
  <path
     style="fill:#b3b3b3;fill-opacity:1;stroke:none"
     d="m 315.41679,330.38258 c 0,-0.44254 2.74348,-5.14863 6.09662,-10.45796 15.38595,-24.36192 19.21732,-39.8618 19.20965,-77.71301 -0.005,-24.83332 -0.44681,-29.99696 -3.53501,-41.31716 -3.96145,-14.52125 -11.72287,-31.97304 -17.73525,-39.87828 -5.17729,-6.80724 -4.12108,-7.63722 2.90204,-2.28042 9.83812,7.5039 23.04834,23.45099 29.50807,35.62149 8.59866,16.20038 11.36352,28.02368 11.405,48.77083 0.0407,20.33687 -2.17576,29.22709 -12.2013,48.94056 -5.64794,11.10568 -9.5523,16.28237 -19.95863,26.46257 -11.52237,11.272 -15.69119,14.42066 -15.69119,11.85138 z"
     id="path3819"
     inkscape:connector-curvature="0" />
  <path
     style="fill:#b3b3b3;fill-opacity:1;stroke:none"
     d="m 360.14026,366.91867 c 26.62391,-36.03946 41.70241,-94.91309 36.75252,-143.49932 -4.43514,-43.53379 -17.28058,-79.86271 -37.4523,-105.92104 -2.47937,-3.20291 -4.19713,-6.13428 -3.81725,-6.51417 1.4666,-1.4666 23.87013,19.43841 31.87482,29.74278 26.46937,34.07382 38.80147,74.18124 35.27879,114.73643 -1.52191,17.52107 -2.06603,20.401 -6.48128,34.30419 -4.91423,15.4744 -12.5151,31.13705 -21.41255,44.12352 -8.15158,11.89783 -36.44284,41.78396 -39.55417,41.78396 -0.9115,0 1.25363,-3.94036 4.81142,-8.75635 z"
     id="path3821"
     inkscape:connector-curvature="0" />
  <path
     style="fill:#000000;fill-opacity:1;stroke:none"
     d=""
     id="path3823"
     inkscape:connector-curvature="0" />
  <path
     style="fill:#b3b3b3;fill-opacity:1;stroke:none"
     d="m 390.58583,430.01794 c 0,-0.62643 2.61565,-4.65335 5.81256,-8.94869 39.97702,-53.71278 59.37173,-126.50206 53.99227,-202.63561 -3.93567,-55.70005 -20.17465,-104.98662 -48.30628,-146.61327 -6.3242,-9.357989 -11.49855,-17.350406 -11.49855,-17.760928 0,-1.71533 9.86489,6.51328 24.56306,20.488802 36.76901,34.961246 59.82092,76.682556 69.09841,125.060166 4.7816,24.93376 4.42515,65.63529 -0.79318,90.56932 -9.93344,47.46358 -36.98566,93.37092 -74.49286,126.41362 -15.10223,13.3046 -18.37543,15.69627 -18.37543,13.42659 z"
     id="path3825"
     inkscape:connector-curvature="0" />
</svg>
