<?xml version="1.0" encoding="UTF-8" standalone="no"?>
<svg
   xmlns:dc="http://purl.org/dc/elements/1.1/"
   xmlns:cc="http://creativecommons.org/ns#"
   xmlns:rdf="http://www.w3.org/1999/02/22-rdf-syntax-ns#"
   xmlns:svg="http://www.w3.org/2000/svg"
   xmlns="http://www.w3.org/2000/svg"
   xmlns:sodipodi="http://sodipodi.sourceforge.net/DTD/sodipodi-0.dtd"
   xmlns:inkscape="http://www.inkscape.org/namespaces/inkscape"
   viewBox="0 0 512 512"
   id="svg3003"
   version="1.1"
   inkscape:version="0.48.4 r9939"
   width="100%"
   height="100%"
   sodipodi:docname="back-up.svg">
  <metadata
     id="metadata3019">
    <rdf:RDF>
      <cc:Work
         rdf:about="">
        <dc:format>image/svg+xml</dc:format>
        <dc:type
           rdf:resource="http://purl.org/dc/dcmitype/StillImage" />
      </cc:Work>
    </rdf:RDF>
  </metadata>
  <defs
     id="defs3017" />
  <sodipodi:namedview
     pagecolor="#ffffff"
     bordercolor="#666666"
     borderopacity="1"
     objecttolerance="10"
     gridtolerance="10"
     guidetolerance="10"
     inkscape:pageopacity="0"
     inkscape:pageshadow="2"
     inkscape:window-width="1680"
     inkscape:window-height="987"
     id="namedview3015"
     showgrid="false"
     inkscape:zoom="0.23046875"
     inkscape:cx="460.06259"
     inkscape:cy="289.18289"
     inkscape:window-x="-4"
     inkscape:window-y="-4"
     inkscape:window-maximized="1"
     inkscape:current-layer="svg3003" />
  <g
     transform="matrix(18.68858,0,0,18.68858,-11804.50538,-34718.59273)"
     id="g3007">
    <path
       d="m644.9123,1858.9311c-1.5869.2061-2.8259,1.9309-2.8259,4.0126 3e-05,1.153.3954,2.1825 1.0042,2.9162-3.3003.6204-3.5499,6.1771-3.5499,10.0782h2.2887l.6072,8.1418h5.8153l.5372-8.1418h2.172c0-3.9119.0786-9.5664-3.5265-10.1249 .5827-.7302.9575-1.745.9575-2.8695-3e-05-2.2204-1.415-4.0126-3.1529-4.0126-.1086,0-.2212-.014-.327,0z"
       fill="#fff"
       fill-rule="evenodd"
       id="path3009" />
    <path
       d="m649.7911,1858.9062c1.7379,0 3.1562,1.7797 3.1562,4 0,1.1246-.386,2.1449-.9688,2.875 3.6051.5586 3.5312,6.2131 3.5312,10.125h-2.1562l-.5625,8.1563h-3.375l.5312-8.1563h2.1875c0-3.9119.0739-9.5664-3.5312-10.125 .5827-.7301.9688-1.7504.9688-2.875-2e-05-1.4249-.5919-2.6632-1.4688-3.375 .4047-.3334.8408-.5596 1.3438-.625 .1058-.014.2351,0 .3438,0z"
       fill="#fff"
       fill-rule="evenodd"
       id="path3011" />
    <path
       d="m642.3982,1859.5312c-.8722.7187-1.4688,1.9531-1.4688,3.375 3e-05,1.1531.3911,2.2039 1,2.9376-3.3003.6204-3.5313,6.1614-3.5312,10.0624h2.2812l.5938,8.1563h-3.375l-.5938-8.1563h-2.3125c-2e-05-3.901.2622-9.442 3.5625-10.0624-.6089-.7337-1-1.7845-1-2.9376 0-2.0816 1.2256-3.7938 2.8125-4 .1058-.014.2351,0 .3438,0 .6226,0 1.198.2277 1.6875.625z"
       fill="#fff"
       fill-rule="evenodd"
       id="path3013" />
  </g>
  <path
     style="fill:#000000;stroke:none;stroke-width:2.16949153000000020"
     d="m 202.17916,487.15932 c -0.01,-2.68474 -2.43494,-36.61017 -5.38966,-75.38983 -2.95472,-38.77966 -5.38755,-71.24068 -5.40628,-72.13559 -0.0187,-0.89492 -9.79678,-1.62712 -21.72898,-1.62712 l -21.69492,0 0,-7.08788 c 0,-3.89832 1.01941,-22.69154 2.26535,-41.76271 4.95758,-75.88351 23.38601,-121.31963 53.77022,-132.57281 5.57366,-2.06427 10.4155,-3.94294 10.75965,-4.17482 0.34414,-0.23187 -2.34598,-5.20205 -5.97806,-11.04484 -18.90812,-30.41679 -14.40377,-77.422303 9.73188,-101.557955 20.45957,-20.459571 46.01213,-21.567414 67.20391,-2.913659 5.22291,4.597383 11.41181,11.503509 13.75312,15.346946 15.97063,26.216958 15.18582,68.812938 -1.7049,92.533758 l -4.59323,6.45061 8.66074,2.33209 c 11.68138,3.14547 25.82965,14.28248 34.06313,26.81329 14.27942,21.73229 21.13329,56.66725 23.58478,120.21425 l 1.44372,37.42373 -20.486,0 -20.486,0 -1.31987,15.72881 c -0.72593,8.65085 -2.87443,41.11187 -4.77445,72.1356 -1.90001,31.02373 -3.90001,58.60339 -4.44443,61.28813 l -0.98985,4.88136 -53.11121,0 -53.11121,0 -0.0174,-4.88136 -9e-5,0 z"
     id="path3030"
     inkscape:connector-curvature="0" />
  <path
     style="fill:#000000;stroke:none"
     d="m 338.15698,418.82034 c 2.6134,-39.07797 4.82025,-72.75932 4.90411,-74.84746 0.13408,-3.33869 2.63832,-3.79661 20.76264,-3.79661 l 20.61017,0 -0.0447,-17.8983 c -0.0246,-9.84407 -0.99394,-32.05424 -2.15415,-49.35594 -5.14488,-76.72368 -21.44742,-110.60456 -58.80687,-122.21587 -3.05146,-0.94839 -2.68934,-2.75801 2.75012,-13.74325 15.50587,-31.3148 11.50423,-71.408775 -9.51655,-95.350121 -7.19305,-8.19243 -6.81703,-9.757746 3.52263,-14.664238 12.16925,-5.774685 28.72622,-4.564754 42.04323,3.072387 33.10695,18.986424 44.14106,67.763462 24.24985,107.198052 -3.51041,6.95941 -6.38255,12.87141 -6.38255,13.13776 0,0.26635 4.54317,2.21933 10.09593,4.33995 35.99265,13.74572 51.35343,54.36806 54.34455,143.71686 l 1.32546,39.59322 -20.95077,0 c -15.35351,0 -20.93112,0.7245 -20.87723,2.71186 0.0404,1.49153 -2.10903,35.66102 -4.7766,75.93221 l -4.85014,73.22034 -30.5004,0 -30.50039,0 4.75165,-71.05085 0,0 z"
     id="path3800"
     inkscape:connector-curvature="0" />
  <path
     style="fill:#000000;stroke:none"
     d="m 117.58644,487.00689 c 0,-1.57537 -2.44068,-35.4322 -5.42373,-75.2374 -2.98305,-39.8052 -5.42373,-72.68575 -5.42373,-73.06791 0,-0.38213 -9.762709,-0.6948 -21.694912,-0.6948 l -21.694915,0 0.0053,-12.47458 c 0.0095,-22.42824 4.29829,-70.67776 7.858336,-88.40678 4.995468,-24.87741 14.121939,-49.18395 22.691273,-60.43367 8.201437,-10.76675 21.565707,-20.50809 30.733257,-22.40176 7.08709,-1.46392 7.12444,-1.64382 1.87529,-9.03305 -6.23723,-8.78015 -10.79005,-21.00439 -13.39572,-35.96725 -5.82203,-33.432549 11.90739,-71.802169 38.26661,-82.815754 10.17188,-4.250084 26.34871,-3.712881 37.25382,1.237131 10.03324,4.554256 11.09762,6.647102 5.67104,11.150764 -14.4412,11.985125 -23.97499,45.455856 -20.31767,71.330199 1.46422,10.35888 7.27915,25.98995 14.61582,39.28865 0.39579,0.71743 -3.62952,2.96537 -8.94514,4.99543 -10.87591,4.15354 -24.70298,17.94701 -31.65913,31.58219 -12.94283,25.37004 -19.52636,60.73527 -21.1178,113.44001 l -1.22828,40.67796 20.78138,0 20.78137,0 1.1802,9.22034 c 1.0752,8.40003 9.9493,131.41517 9.93797,137.76271 -0.004,2.04013 -7.52833,2.71187 -30.37773,2.71187 -23.71405,0 -30.37288,-0.62796 -30.37288,-2.8643 z"
     id="path3802"
     inkscape:connector-curvature="0" />
</svg>
