<?xml version="1.0" encoding="UTF-8" standalone="no"?>
<svg
   xmlns:dc="http://purl.org/dc/elements/1.1/"
   xmlns:cc="http://creativecommons.org/ns#"
   xmlns:rdf="http://www.w3.org/1999/02/22-rdf-syntax-ns#"
   xmlns:svg="http://www.w3.org/2000/svg"
   xmlns="http://www.w3.org/2000/svg"
   xmlns:sodipodi="http://sodipodi.sourceforge.net/DTD/sodipodi-0.dtd"
   xmlns:inkscape="http://www.inkscape.org/namespaces/inkscape"
   viewBox="0 0 512 512"
   id="svg4037"
   version="1.1"
   inkscape:version="0.48.4 r9939"
   width="100%"
   height="100%"
   sodipodi:docname="checkbox-tree.svg">
  <metadata
     id="metadata4061">
    <rdf:RDF>
      <cc:Work
         rdf:about="">
        <dc:format>image/svg+xml</dc:format>
        <dc:type
           rdf:resource="http://purl.org/dc/dcmitype/StillImage" />
      </cc:Work>
    </rdf:RDF>
  </metadata>
  <defs
     id="defs4059">
    <inkscape:path-effect
       effect="spiro"
       id="path-effect4845"
       is_visible="true" />
  </defs>
  <sodipodi:namedview
     pagecolor="#ffffff"
     bordercolor="#666666"
     borderopacity="1"
     objecttolerance="10"
     gridtolerance="10"
     guidetolerance="10"
     inkscape:pageopacity="0"
     inkscape:pageshadow="2"
     inkscape:window-width="1680"
     inkscape:window-height="987"
     id="namedview4057"
     showgrid="false"
     inkscape:zoom="0.921875"
     inkscape:cx="194.76829"
     inkscape:cy="260.75515"
     inkscape:window-x="-4"
     inkscape:window-y="-4"
     inkscape:window-maximized="1"
     inkscape:current-layer="svg4037" />
  <path
     style="fill:#000000"
     d="m 249.39363,342.60207 0,-74.40201 -38.73507,0 -38.73507,0 0,25.31202 0,25.31203 -74.402019,0 -74.402016,0 0,-62.51304 0,-62.51303 74.402016,0 74.402019,0 0,28.38015 0,28.38015 38.73507,0 38.73507,0 0,-72.10092 0,-72.10092 9.20437,0 9.20437,0 0,32.2153 0,32.21531 36.05046,0 36.05046,0 0,-27.99664 0,-27.99663 74.40202,0 74.40201,0 0,62.51303 0,62.51304 -74.40201,0 -74.40202,0 0,-25.31203 0,-25.31203 -36.05046,0 -36.05046,0 0,74.78553 0,74.78554 36.05046,0 36.05046,0 0,-27.99664 0,-27.99663 74.40202,0 74.40201,0 0,62.51303 0,62.51303 -74.40201,0 -74.40202,0 0,-25.31202 0,-25.31203 -36.05046,0 -36.05046,0 0,29.91421 0,29.91422 -9.20437,0 -9.20437,0 0,-74.40202 z m 221.67198,2.30109 0,-44.4878 -56.37679,0 -56.37678,0 0,44.4878 0,44.48781 56.37678,0 56.37679,0 0,-44.48781 z m -317.55087,-88.20857 0,-44.4878 -56.376785,0 -56.376785,0 0,44.4878 0,44.4878 56.376785,0 56.376785,0 0,-44.4878 z m 317.55087,-79.38772 0,-44.87132 -56.37679,0 -56.37678,0 0,44.87132 0,44.87132 56.37678,0 56.37679,0 0,-44.87132 z"
     id="path4063"
     inkscape:connector-curvature="0" />
</svg>
