<?xml version="1.0" encoding="UTF-8" standalone="no"?>
<svg
   xmlns:dc="http://purl.org/dc/elements/1.1/"
   xmlns:cc="http://creativecommons.org/ns#"
   xmlns:rdf="http://www.w3.org/1999/02/22-rdf-syntax-ns#"
   xmlns:svg="http://www.w3.org/2000/svg"
   xmlns="http://www.w3.org/2000/svg"
   xmlns:sodipodi="http://sodipodi.sourceforge.net/DTD/sodipodi-0.dtd"
   xmlns:inkscape="http://www.inkscape.org/namespaces/inkscape"
   viewBox="0 0 512 512"
   id="svg3099"
   version="1.1"
   inkscape:version="0.48.4 r9939"
   width="100%"
   height="100%"
   sodipodi:docname="double-quaver.svg">
  <metadata
     id="metadata3119">
    <rdf:RDF>
      <cc:Work
         rdf:about="">
        <dc:format>image/svg+xml</dc:format>
        <dc:type
           rdf:resource="http://purl.org/dc/dcmitype/StillImage" />
      </cc:Work>
    </rdf:RDF>
  </metadata>
  <defs
     id="defs3117" />
  <sodipodi:namedview
     pagecolor="#ffffff"
     bordercolor="#666666"
     borderopacity="1"
     objecttolerance="10"
     gridtolerance="10"
     guidetolerance="10"
     inkscape:pageopacity="0"
     inkscape:pageshadow="2"
     inkscape:window-width="640"
     inkscape:window-height="480"
     id="namedview3115"
     showgrid="false"
     inkscape:zoom="0.4609375"
     inkscape:cx="256"
     inkscape:cy="256"
     inkscape:window-x="594"
     inkscape:window-y="294"
     inkscape:window-maximized="0"
     inkscape:current-layer="svg3099" />
  <path
     style="fill:#000000;fill-opacity:1;stroke:none"
     d="m 448.28685,23.535515 c -93.79209,27.64871 -186.84504,58.015317 -280.20359,87.186435 -3.21574,23.61149 -0.4139,49.1514 -1.35594,73.49153 0,69.01695 0,138.0339 0,207.05085 -32.33428,-4.00933 -66.18633,-0.2324 -93.9125,17.88767 -17.875743,10.20366 -39.151779,31.29231 -28.935041,53.63775 14.26795,26.89731 50.082925,25.58421 75.743971,19.66039 25.06156,-6.45114 52.70179,-17.13287 66.96799,-39.79598 7.42054,-33.11261 2.71124,-67.51287 3.8637,-101.1522 -0.2034,-38.87017 -0.40627,-77.74034 -0.60946,-116.61051 79.77864,-25.11535 159.49762,-50.42096 239.3222,-75.38984 0,45.74012 0,91.48024 0,137.22034 -36.06519,-9.52304 -75.70224,1.37381 -105.15261,23.45763 -17.36923,11.50442 -29.04962,39.05456 -12.1356,55.79661 23.60916,20.82122 59.40482,14.10016 86.77972,5.35593 22.09692,-8.17397 45.94882,-21.37292 54.50365,-44.13559 -0.51391,-100.60657 0.24843,-201.24765 -1.62226,-301.830505 -1.0504,-0.73651 -1.69604,-2.61745 -3.25423,-1.83051 z m -19.11867,40.47458 c 6.09908,17.559247 -13.56083,16.220777 -24.83312,21.035767 -71.15955,22.195148 -142.89316,45.323808 -213.60772,67.235418 0.0923,-8.12871 -2.94636,-20.10237 1.59489,-25.6681 78.95064,-24.83881 157.89843,-49.686588 236.84595,-74.535285 0,3.9774 0,7.9548 0,11.9322 z m -0.61017,37.559315 c -0.79737,9.70592 5.03284,26.43598 -8.61522,27.15217 -76.21786,23.60132 -153.38765,49.28493 -229.07986,71.4241 0.76146,-9.6392 -4.97073,-26.21451 8.61386,-26.8853 76.27973,-23.80232 152.98428,-48.97891 229.08122,-71.69097 z"
     id="path3121"
     inkscape:connector-curvature="0" />
</svg>
