<?xml version="1.0" encoding="UTF-8" standalone="no"?>
<svg
   xmlns:dc="http://purl.org/dc/elements/1.1/"
   xmlns:cc="http://creativecommons.org/ns#"
   xmlns:rdf="http://www.w3.org/1999/02/22-rdf-syntax-ns#"
   xmlns:svg="http://www.w3.org/2000/svg"
   xmlns="http://www.w3.org/2000/svg"
   xmlns:sodipodi="http://sodipodi.sourceforge.net/DTD/sodipodi-0.dtd"
   xmlns:inkscape="http://www.inkscape.org/namespaces/inkscape"
   viewBox="0 0 512 512"
   id="svg3084"
   version="1.1"
   inkscape:version="0.48.4 r9939"
   width="100%"
   height="100%"
   sodipodi:docname="metal-disc.svg">
  <metadata
     id="metadata3108">
    <rdf:RDF>
      <cc:Work
         rdf:about="">
        <dc:format>image/svg+xml</dc:format>
        <dc:type
           rdf:resource="http://purl.org/dc/dcmitype/StillImage" />
      </cc:Work>
    </rdf:RDF>
  </metadata>
  <defs
     id="defs3106" />
  <sodipodi:namedview
     pagecolor="#ffffff"
     bordercolor="#666666"
     borderopacity="1"
     objecttolerance="10"
     gridtolerance="10"
     guidetolerance="10"
     inkscape:pageopacity="0"
     inkscape:pageshadow="2"
     inkscape:window-width="1280"
     inkscape:window-height="1005"
     id="namedview3104"
     showgrid="false"
     inkscape:zoom="0.921875"
     inkscape:cx="311.4197"
     inkscape:cy="163.00522"
     inkscape:window-x="1676"
     inkscape:window-y="-4"
     inkscape:window-maximized="1"
     inkscape:current-layer="svg3084" />
  <g
     transform="matrix(18.68858,0,0,18.68858,-2952.29354,-26546.19388)"
     id="g3088">
    <path
       d="m141.8469,1435.7065c0,4.7655-3.8632,8.6287-8.6287,8.6287s-8.6287-3.8632-8.6287-8.6287 3.8632-8.6286 8.6287-8.6286 8.6287,3.8632 8.6287,8.6286z"
       transform="matrix(1.17262,0,2.5275578e-8,1.53033,13.43214,-763.00891)"
       id="path3090"
       stroke-width=".7465"
       stroke="#000"
       fill="#fff" />
    <path
       d="m141.8469,1435.7065c0,4.7655-3.8632,8.6287-8.6287,8.6287s-8.6287-3.8632-8.6287-8.6287 3.8632-8.6286 8.6287-8.6286 8.6287,3.8632 8.6287,8.6286z"
       transform="matrix(1.17262,0,2.5275578e-8,1.53033,16.71617,-763.00883)"
       id="path3092"
       stroke-width=".7465"
       stroke="#000"
       fill="#fff"
       style="stroke-width:0.74651505;stroke-miterlimit:4;stroke-dasharray:none" />
    <path
       d="m 161.77652,1426.7414 c 2.35704,-4.0889 4.88207,-5.4135 7.01838,-4.4708 l 13.8979,12.5348 -0.62681,3.4621 -1.44639,3.3685 -16.5287,-14.7972 -2.42153,0.082"
       id="path3094"
       style="fill:#b3b3b3"
       inkscape:connector-curvature="0"
       sodipodi:nodetypes="ccccccc" />
    <path
       d="m 160.88386,1428.7679 2.93434,0.2318 15.88943,14.2586 -1.41966,1.4303 -15.29087,-13.728 -2.75348,-0.024"
       id="path3096"
       inkscape:connector-curvature="0"
       sodipodi:nodetypes="cccccc"
       style="fill:#b3b3b3" />
    <path
       d="m 160.09712,1432.5875 3.25958,-0.021 14.1993,12.8067 -1.60972,0.8691 -13.31808,-11.9357 -2.60123,-0.02"
       id="path3098"
       style="fill:#b3b3b3"
       inkscape:connector-curvature="0"
       sodipodi:nodetypes="cccccc" />
    <path
       d="m168.7752,1422.272-1.2301-.0001c-1.4251,1.1328-2.7396,2.7157-3.6207,4.5698l.1591.0003 .6637.599c.9781-2.0569 2.5991-3.9216 4.2837-4.9591zm-4.7257,6.9332-.2445-.2206h-.7265c-.1998.6491-.3651,1.2932-.4891,1.9856h.4119l.5241.4727c.1269-.7911.3424-1.5767.5241-2.2377zm-.6639,3.4037-.0344-.032h-.9669c-.0583.6359-.0575,1.1648-.0716,1.7341l.3031-.0003 .7108.6246c-.0887-.7203-.006-1.6367.0587-2.3263z"
       id="path3100"
       fill="#fff" />
    <path
       d="m181.7893,1431.2189c.1793.9495.2739,1.9442.2738,2.9684-6e-05,6.682-4.0432,12.0986-9.0306,12.0986"
       id="path3102"
       stroke="#fff"
       fill="none" />
  </g>
  <path
     style="fill:#808080;fill-opacity:1;stroke:none"
     d="m 37.518644,259.03729 c -0.832426,74.07493 28.053176,150.84542 85.423726,199.05085 22.01637,17.62735 48.4442,32.53697 77.01695,34.37288 4.2005,-6.61491 -9.83785,-8.694 -12.61017,-13.22034 C 121.52128,432.0627 88.121494,350.99304 83.337947,271.32263 87.727557,252.89427 69.664215,257.052 57.722034,257.07119 c -6.342059,1.24222 -15.293641,-2.54832 -20.20339,1.9661 z"
     id="path3110"
     inkscape:connector-curvature="0" />
  <path
     style="fill:#808080;fill-opacity:1;stroke:none"
     d="m 273.99322,16.461017 c -23.27435,0.740638 -47.48063,6.777718 -66.71186,19.864407 0.58243,8.893153 13.79933,13.664683 18.75047,20.934443 70.37949,64.830803 141.81524,128.500323 212.77495,192.692673 0.73342,44.90774 -8.8829,90.74139 -28.94915,130.64407 -95.84369,-81.11124 -187.28152,-168.4652 -282.64407,-250.30508 -7.71144,2.86073 -7.27613,15.50004 -11.50205,22.02761 -1.06595,15.44577 -26.780988,-3.52255 -24.78789,15.84349 -0.633916,9.00744 -9.459473,21.23385 -3.099891,29.38313 6.521336,1.75534 17.027801,5.91372 12.881351,13.9661 -3.850597,13.86119 3.74536,23.6403 14.83945,31.042 76.7586,69.79417 155.09415,138.33459 230.04191,209.77156 -7.74083,4.02257 -16.08702,10.36152 -24.54237,11.25424 -43.84381,-32.84187 -82.88907,-72.34851 -124.40919,-108.38634 -31.7158,-28.0573 -62.7537,-57.19554 -95.25183,-84.15603 -6.940288,2.99717 -0.085,14.61905 -1.15254,20.47457 8.29382,71.2127 42.64737,142.70675 105.15254,181.15255 48.38928,30.83713 114.84633,27.65552 160.74576,-6.91526 60.7703,-43.20119 90.68002,-119.27055 94.71187,-192.06779 C 465.00903,190.39985 436.71773,100.07708 369.24746,47.511864 342.25347,26.177068 308.47032,15.376224 273.99322,16.461017 z M 114.60339,170.15593 c 91.75439,79.65709 183.31115,160.86331 272.61017,243.38983 -4.73847,9.78949 -14.62348,16.92076 -21.42373,25.49153 C 279.0459,361.27601 193.0221,282.0444 105.45085,205.61356 c 3.74851,-10.53524 4.37984,-27.51937 9.15254,-35.45763 z"
     id="path3112"
     inkscape:connector-curvature="0" />
  <path
     style="fill:#808080;fill-opacity:1;stroke:none"
     d="m 89.044068,224.59661 c -12.67319,-1.12538 -6.871519,15.65868 -9.559322,22.84746 -1.465362,5.78166 -1.574171,14.31319 6.101695,14.37288 5.896805,1.04212 11.368332,13.49788 16.203389,7.72881 -0.38322,-14.82198 2.7191,-31.55947 -1.55932,-45.01695 -3.728567,0.035 -7.459461,-0.0774 -11.186442,0.0678 z"
     id="path3114"
     inkscape:connector-curvature="0" />
  <path
     style="fill:#808080;fill-opacity:1;stroke:none"
     d="m 42.264407,195.78305 c -0.133213,10.624 -6.676369,23.81493 -3.118644,32.67797 14.755692,-1.11609 31.172369,2.23842 44.881356,-1.69492 -1.517614,-9.68614 9.642049,-28.24566 0.0678,-32.61017 -13.662039,1.10867 -29.179587,-2.19404 -41.830508,1.62712 z"
     id="path3116"
     inkscape:connector-curvature="0" />
  <path
     style="fill:#808080;fill-opacity:1;stroke:none"
     d="m 68.637288,119.37627 c -4.093522,13.05316 -14.798718,25.65574 -14.779661,39.32204 11.061557,5.97444 25.921124,0.63058 38.169492,2.50847 11.110561,-3.15565 10.128851,-21.72988 16.466961,-30.8318 11.89747,-16.61316 -10.036122,-11.74887 -20.195775,-12.15125 -6.341677,0.84913 -13.923504,-1.6618 -19.661017,1.15254 z"
     id="path3118"
     inkscape:connector-curvature="0" />
  <path
     style="fill:#808080;fill-opacity:1;stroke:none"
     d="m 189.45085,19.308475 c -12.33542,2.477879 -24.97362,6.377998 -35.79661,12.474576 6.55086,6.371241 30.21149,0.276823 11.66101,11.728813 -23.01753,20.856203 -40.14682,47.303986 -55.8644,73.966106 3.08356,5.45029 11.3362,12.51822 18.23729,12.74576 19.94574,-34.108951 45.0924,-65.247287 76.27118,-89.288137 5.82898,-8.175385 -7.8205,-10.513146 -13.28813,-9.491525 -12.02338,1.629592 26.24708,-18.115627 -0.5945,-12.223027 l -0.62584,0.08743 z"
     id="path3120"
     inkscape:connector-curvature="0" />
</svg>
