<?xml version="1.0" encoding="UTF-8" standalone="no"?>
<svg
   xmlns:dc="http://purl.org/dc/elements/1.1/"
   xmlns:cc="http://creativecommons.org/ns#"
   xmlns:rdf="http://www.w3.org/1999/02/22-rdf-syntax-ns#"
   xmlns:svg="http://www.w3.org/2000/svg"
   xmlns="http://www.w3.org/2000/svg"
   xmlns:sodipodi="http://sodipodi.sourceforge.net/DTD/sodipodi-0.dtd"
   xmlns:inkscape="http://www.inkscape.org/namespaces/inkscape"
   viewBox="0 0 512 512"
   id="svg3940"
   version="1.1"
   inkscape:version="0.48.4 r9939"
   width="100%"
   height="100%"
   sodipodi:docname="microchip.svg">
  <metadata
     id="metadata3970">
    <rdf:RDF>
      <cc:Work
         rdf:about="">
        <dc:format>image/svg+xml</dc:format>
        <dc:type
           rdf:resource="http://purl.org/dc/dcmitype/StillImage" />
      </cc:Work>
    </rdf:RDF>
  </metadata>
  <defs
     id="defs3968" />
  <sodipodi:namedview
     pagecolor="#ffffff"
     bordercolor="#666666"
     borderopacity="1"
     objecttolerance="10"
     gridtolerance="10"
     guidetolerance="10"
     inkscape:pageopacity="0"
     inkscape:pageshadow="2"
     inkscape:window-width="726"
     inkscape:window-height="480"
     id="namedview3966"
     showgrid="false"
     inkscape:zoom="0.65186406"
     inkscape:cx="255.4417"
     inkscape:cy="227.59821"
     inkscape:window-x="1858"
     inkscape:window-y="339"
     inkscape:window-maximized="0"
     inkscape:current-layer="svg3940" />
  <path
     style="fill:#000000;fill-opacity:1;stroke:none"
     d="M 210.45606,427.29639 C 138.54073,407.89044 79.122235,391.43417 78.414974,390.72692 c -0.707261,-0.70728 -0.113377,-6.17366 1.319726,-12.14752 3.071013,-12.80141 2.400583,-14.39458 -6.834712,-16.24164 -3.837789,-0.76757 -10.80066,-2.42495 -15.473044,-3.68311 -7.904266,-2.1284 -8.406682,-2.73034 -7.222148,-8.65301 1.240342,-6.20171 0.937238,-6.45888 -11.779575,-9.99446 -12.916519,-3.59111 -13.037788,-3.69855 -11.625667,-10.29942 0.784854,-3.66876 1.849033,-7.12518 2.364842,-7.68096 0.515809,-0.55575 6.7681,0.50851 13.89398,2.36505 l 12.956147,3.37549 1.27422,-5.07689 c 1.537515,-6.12595 0.181543,-6.08698 19.842339,-0.57016 8.833567,2.47871 16.300332,4.18718 16.592814,3.79661 0.671312,-0.89644 12.097494,-44.03432 12.097494,-45.67233 0,-0.66632 -2.68474,-1.86739 -5.966097,-2.66909 -3.281356,-0.80167 -10.91961,-2.87934 -16.973898,-4.61704 -10.321314,-2.96242 -10.951053,-3.54608 -10.097902,-9.35897 0.866226,-5.90197 0.353323,-6.33012 -10.687119,-8.92117 -6.378358,-1.49693 -12.270909,-3.10265 -13.094559,-3.56829 -1.140389,-0.64469 1.612421,-12.52837 3.547626,-15.31485 0.17664,-0.25436 5.645278,0.95439 12.152503,2.68611 15.087099,4.01503 14.388551,4.10301 15.921683,-2.00547 l 1.306514,-5.20556 16.53192,4.23508 c 9.092559,2.3293 17.133139,3.63387 17.867949,2.89905 2.47547,-2.47546 13.14707,-45.52336 11.61675,-46.86051 -0.83336,-0.72816 -8.53418,-3.09767 -17.11293,-5.26556 -15.149436,-3.82834 -15.563722,-4.1117 -14.414285,-9.85888 1.132204,-5.66102 0.652505,-6.03608 -11.077558,-8.66116 -6.743556,-1.50914 -12.692894,-3.44269 -13.220753,-4.29678 -0.527857,-0.85409 0.09862,-4.58891 1.392175,-8.2996 2.475753,-7.10195 4.685777,-7.34905 18.889898,-2.11201 7.571213,2.7915 9.001973,2.33717 11.248593,-3.5719 2.47256,-6.50332 1.77487,-6.46157 20.62592,-1.23433 8.30955,2.30417 15.39866,3.89901 15.75358,3.54409 1.78352,-1.78351 12.84003,-46.93191 11.64971,-47.57063 -0.76183,-0.40879 -8.49739,-2.54873 -17.19014,-4.755429 -15.1627,-3.849123 -15.75495,-4.240048 -14.57341,-9.619534 1.15993,-5.28113 0.50171,-5.792484 -11.31365,-8.789317 -11.867602,-3.010085 -12.520595,-3.52261 -12.089204,-9.488664 0.666016,-9.210891 2.795281,-10.179754 14.578484,-6.633529 13.78525,4.148749 13.93613,4.127067 15.53223,-2.232322 1.62013,-6.455087 1.97618,-6.476374 21.87308,-1.307715 l 15.55846,4.041652 3.07556,-12.214426 c 1.69156,-6.717934 3.96483,-12.075529 5.05171,-11.905765 1.08688,0.169763 61.84452,16.278237 135.01696,35.796609 l 133.04084,35.48795 -1.38412,6.50847 c -0.76125,3.57967 -1.9044,9.48043 -2.54034,13.11281 l -1.15628,6.60433 16.59312,3.91183 16.5931,3.91183 -0.65289,6.83977 c -0.63473,6.64965 -0.30614,6.92754 11.82169,9.9972 12.85133,3.25277 13.92371,4.68082 10.42517,13.88268 l -2.04941,5.39036 -12.12097,-3.16523 c -12.62187,-3.29602 -16.32259,-2.71612 -16.32259,2.55772 0,4.08519 -2.55227,3.95131 -20.04632,-1.05154 -8.03484,-2.29776 -15.00032,-3.51809 -15.47886,-2.71186 -1.21793,2.05187 -12.20363,42.82585 -12.20363,45.29436 0,1.11222 7.38532,3.76331 16.41181,5.89131 16.35127,3.85482 16.40928,3.89388 15.72882,10.59017 -0.66198,6.51422 -0.29273,6.8228 11.99726,10.0263 l 12.68025,3.30522 -1.19765,7.38027 c -0.6587,4.05914 -1.54405,7.72667 -1.96745,8.15004 -0.42339,0.4234 -6.40982,-0.83464 -13.30321,-2.79565 -12.85623,-3.65726 -14.37683,-3.24482 -17.14243,4.64985 -0.42019,1.19945 -7.84378,0.1779 -17.57206,-2.41802 -11.60663,-3.09719 -17.08566,-3.74298 -17.62007,-2.07686 -3.79535,11.83263 -11.93899,45.38696 -11.19581,46.13016 0.52003,0.52003 8.21066,2.92037 17.0903,5.33413 15.56372,4.23068 16.11318,4.60386 15.26715,10.36832 -0.8319,5.668 -0.24772,6.12068 11.20692,8.68411 6.64649,1.48743 12.44602,3.37033 12.8878,4.18421 0.44179,0.81391 -0.0345,4.56309 -1.0582,8.33154 l -1.86142,6.85173 -11.37939,-3.02936 c -14.08419,-3.74943 -16.79421,-3.80883 -16.83634,-0.36901 -0.0926,7.5687 -3.20801,8.16336 -19.34269,3.69221 -8.73967,-2.42189 -16.47807,-3.81564 -17.19648,-3.09725 -1.28546,1.28549 -13.46343,45.18829 -12.65566,45.62501 0.22797,0.12323 7.73652,2.18553 16.68567,4.58279 15.1409,4.05593 16.23103,4.73932 15.69308,9.838 -0.52593,4.9849 0.61214,5.81324 12.61373,9.18072 13.1763,3.69707 13.19009,3.70955 11.71449,10.601 -0.81251,3.79475 -1.83064,7.28557 -2.26249,7.75737 -0.43184,0.4718 -6.3201,-0.71676 -13.08503,-2.64121 -13.27323,-3.77591 -15.99582,-3.32748 -15.99582,2.63459 0,6.16565 -1.48115,6.35025 -16.8216,2.09647 -7.99816,-2.21783 -15.65855,-4.03242 -17.02307,-4.03242 -1.36455,0 -3.90641,5.12543 -5.6486,11.38984 -1.79612,6.45827 -4.49961,11.54032 -6.24395,11.73742 -1.69198,0.19113 -61.91616,-15.53 -133.8315,-34.93595 l 0,0 z m 127.30255,8.01208 c 1.17608,-4.47457 20.2944,-75.89421 42.48515,-158.71032 C 402.43451,193.78206 419.81498,125.3675 418.867,124.5658 415.01362,121.30697 183.62456,61.061196 182.03795,62.903634 179.95891,65.317912 96.279175,378.22447 97.414769,379.33807 c 0.779561,0.76446 233.484321,63.65288 236.662001,63.95786 0.84892,0.0814 2.50574,-3.51288 3.68184,-7.98746 z"
     id="path4482"
     inkscape:connector-curvature="0" />
  <path
     style="fill:#000000;fill-opacity:1;stroke:none"
     d="m 222.97394,389.16415 -94.37288,-25.42215 0.60865,-7.22089 c 0.33476,-3.97149 0.94993,-7.56218 1.36705,-7.9793 0.41711,-0.41711 39.2243,9.53815 86.23818,22.12278 47.01389,12.58464 86.47874,22.88117 87.69968,22.88117 1.22093,0 17.78026,-58.15232 36.79851,-129.22738 l 34.57863,-129.22737 7.60889,1.42086 c 4.18488,0.78147 7.77129,1.57786 7.96978,1.76975 0.37647,0.36394 -71.62568,269.74368 -73.21571,273.92001 -0.58438,1.53492 -34.53624,-6.67413 -95.28078,-23.03748 z"
     id="path4484"
     inkscape:connector-curvature="0" />
  <path
     style="fill:#808080;fill-opacity:1;stroke:none"
     d="m 182.37241,62.5764 c -6.63025,13.275096 -8.70866,29.07458 -13.50172,43.30002 -23.81067,87.62642 -48.34293,175.42489 -69.78622,263.4339 -1.576184,5.17181 -3.074684,13.56711 5.26955,13.04563 74.49381,19.97024 148.7612,41.33226 223.51459,59.99672 4.92141,2.081 10.41827,0.0207 10.25467,-5.97973 27.33001,-99.41398 54.25717,-199.09386 79.05652,-299.10689 1.30136,-5.34979 3.92269,-13.94843 -4.07486,-15.05298 C 351.79268,103.21532 289.24814,88.338641 227.09394,72.337814 212.31102,69.160217 197.38591,63.951347 182.37241,62.5764 z m 198.99662,74.88141 c 3.12533,0.95287 11.88533,0.005 7.67031,5.89655 -24.00841,88.51824 -46.94862,177.58308 -71.57358,265.77627 -4.92749,3.58076 -12.61237,-1.79427 -18.22385,-1.83879 -56.67286,-13.55773 -113.06386,-29.16956 -169.41113,-44.37483 1.33073,-3.79311 -1.40032,-14.95033 5.86316,-11.18715 56.00124,12.58218 111.47047,28.78767 167.24616,42.15603 7.2122,-4.94051 6.61078,-16.03204 10.05759,-23.45121 21.9598,-77.68603 42.72239,-155.71388 63.43358,-233.7439 1.64593,0.25568 3.29184,0.51135 4.93776,0.76703 z"
     id="path4504"
     inkscape:connector-curvature="0" />
</svg>
