<?xml version="1.0" encoding="UTF-8" standalone="no"?>
<svg
   xmlns:dc="http://purl.org/dc/elements/1.1/"
   xmlns:cc="http://creativecommons.org/ns#"
   xmlns:rdf="http://www.w3.org/1999/02/22-rdf-syntax-ns#"
   xmlns:svg="http://www.w3.org/2000/svg"
   xmlns="http://www.w3.org/2000/svg"
   xmlns:sodipodi="http://sodipodi.sourceforge.net/DTD/sodipodi-0.dtd"
   xmlns:inkscape="http://www.inkscape.org/namespaces/inkscape"
   viewBox="0 0 512 512"
   id="svg3192"
   version="1.1"
   inkscape:version="0.48.4 r9939"
   width="100%"
   height="100%"
   sodipodi:docname="nodular.svg">
  <metadata
     id="metadata3206">
    <rdf:RDF>
      <cc:Work
         rdf:about="">
        <dc:format>image/svg+xml</dc:format>
        <dc:type
           rdf:resource="http://purl.org/dc/dcmitype/StillImage" />
      </cc:Work>
    </rdf:RDF>
  </metadata>
  <defs
     id="defs3204" />
  <sodipodi:namedview
     pagecolor="#ffffff"
     bordercolor="#666666"
     borderopacity="1"
     objecttolerance="10"
     gridtolerance="10"
     guidetolerance="10"
     inkscape:pageopacity="0"
     inkscape:pageshadow="2"
     inkscape:window-width="640"
     inkscape:window-height="480"
     id="namedview3202"
     showgrid="false"
     inkscape:zoom="0.4609375"
     inkscape:cx="221.02588"
     inkscape:cy="281.58254"
     inkscape:window-x="495"
     inkscape:window-y="353"
     inkscape:window-maximized="0"
     inkscape:current-layer="svg3192" />
  <g
     transform="matrix(15 0 0 15 -4844 -44)"
     id="g3196"
     style="fill:#000000">
    <use
       width="744.094"
       height="1052.362"
       transform="translate(360)"
       id="use3198"
       style="fill:#000000" />
    <path
       fill="#fff"
       d="m340,4a6,6 0 0,0 -1,11.9062v3.25a4,4 0 0,0 0,7.7188v3.3125a3,3 0 0,0 1,5.8125 3,3 0 0,0 1-5.8125v-3.3438a4,4 0 0,0 0-7.7188v-3.2188a6,6 0 0,0 -1-11.9062zm-.1875,2a4,4 0 0,1 .1875,0 4,4 0 0,1 0,8 4.0011,4.0011 0 0,1 -.1875-8z"
       id="path3200"
       style="fill:#000000" />
  </g>
  <path
     sodipodi:type="arc"
     style="fill:#ffffff;fill-opacity:1;stroke:none"
     id="path3210"
     sodipodi:cx="417.62711"
     sodipodi:cy="263.59323"
     sodipodi:rx="57.491524"
     sodipodi:ry="57.491524"
     d="m 475.11863,263.59323 a 57.491524,57.491524 0 1 1 -114.98305,0 57.491524,57.491524 0 1 1 114.98305,0 z"
     transform="matrix(0.64150942,0,0,0.64150942,-12.29525,131.56316)" />
</svg>
