<?xml version="1.0" encoding="UTF-8" standalone="no"?>
<svg
   xmlns:dc="http://purl.org/dc/elements/1.1/"
   xmlns:cc="http://creativecommons.org/ns#"
   xmlns:rdf="http://www.w3.org/1999/02/22-rdf-syntax-ns#"
   xmlns:svg="http://www.w3.org/2000/svg"
   xmlns="http://www.w3.org/2000/svg"
   xmlns:sodipodi="http://sodipodi.sourceforge.net/DTD/sodipodi-0.dtd"
   xmlns:inkscape="http://www.inkscape.org/namespaces/inkscape"
   viewBox="0 0 512 512"
   id="svg3192"
   version="1.1"
   inkscape:version="0.48.4 r9939"
   width="100%"
   height="100%"
   sodipodi:docname="nodular.svg">
  <metadata
     id="metadata3206">
    <rdf:RDF>
      <cc:Work
         rdf:about="">
        <dc:format>image/svg+xml</dc:format>
        <dc:type
           rdf:resource="http://purl.org/dc/dcmitype/StillImage" />
      </cc:Work>
    </rdf:RDF>
  </metadata>
  <defs
     id="defs3204" />
  <sodipodi:namedview
     pagecolor="#ffffff"
     bordercolor="#666666"
     borderopacity="1"
     objecttolerance="10"
     gridtolerance="10"
     guidetolerance="10"
     inkscape:pageopacity="0"
     inkscape:pageshadow="2"
     inkscape:window-width="640"
     inkscape:window-height="480"
     id="namedview3202"
     showgrid="false"
     inkscape:zoom="0.4609375"
     inkscape:cx="221.02588"
     inkscape:cy="281.58254"
     inkscape:window-x="495"
     inkscape:window-y="353"
     inkscape:window-maximized="0"
     inkscape:current-layer="svg3192" />
  <g
     id="g3001"
     transform="matrix(0,1,-1,0,511.99925,-7.5e-4)">
    <g
       style="fill:#000000"
       id="g3196"
       transform="matrix(15,0,0,15,-4844,-44)">
      <use
         style="fill:#000000"
         id="use3198"
         transform="translate(360,0)"
         height="1052.3621"
         width="744.09399"
         x="0"
         y="0" />
      <path
         style="fill:#000000"
         id="path3200"
         d="m 340,4 a 6,6 0 0 0 -1,11.9062 v 3.25 a 4,4 0 0 0 0,7.7188 v 3.3125 a 3,3 0 0 0 1,5.8125 3,3 0 0 0 1,-5.8125 v -3.3438 a 4,4 0 0 0 0,-7.7188 V 15.9061 A 6,6 0 0 0 340,3.9999 z m -0.1875,2 A 4,4 0 0 1 340,6 a 4,4 0 0 1 0,8 4.0011,4.0011 0 0 1 -0.1875,-8 z"
         inkscape:connector-curvature="0" />
    </g>
    <path
       transform="matrix(0.64150942,0,0,0.64150942,-12.29525,131.56316)"
       d="m 475.11863,263.59323 c 0,31.75169 -25.73983,57.49152 -57.49152,57.49152 -31.7517,0 -57.49153,-25.73983 -57.49153,-57.49152 0,-31.75169 25.73983,-57.49152 57.49153,-57.49152 31.75169,0 57.49152,25.73983 57.49152,57.49152 z"
       sodipodi:ry="57.491524"
       sodipodi:rx="57.491524"
       sodipodi:cy="263.59323"
       sodipodi:cx="417.62711"
       id="path3210"
       style="fill:#ffffff;fill-opacity:1;stroke:none"
       sodipodi:type="arc" />
  </g>
</svg>
