<?xml version="1.0" encoding="UTF-8" standalone="no"?>
<svg
   xmlns:dc="http://purl.org/dc/elements/1.1/"
   xmlns:cc="http://creativecommons.org/ns#"
   xmlns:rdf="http://www.w3.org/1999/02/22-rdf-syntax-ns#"
   xmlns:svg="http://www.w3.org/2000/svg"
   xmlns="http://www.w3.org/2000/svg"
   xmlns:sodipodi="http://sodipodi.sourceforge.net/DTD/sodipodi-0.dtd"
   xmlns:inkscape="http://www.inkscape.org/namespaces/inkscape"
   viewBox="0 0 512 512"
   id="svg3234"
   version="1.1"
   inkscape:version="0.48.4 r9939"
   width="100%"
   height="100%"
   sodipodi:docname="omega.svg">
  <metadata
     id="metadata3246">
    <rdf:RDF>
      <cc:Work
         rdf:about="">
        <dc:format>image/svg+xml</dc:format>
        <dc:type
           rdf:resource="http://purl.org/dc/dcmitype/StillImage" />
      </cc:Work>
    </rdf:RDF>
  </metadata>
  <defs
     id="defs3244" />
  <sodipodi:namedview
     pagecolor="#ffffff"
     bordercolor="#666666"
     borderopacity="1"
     objecttolerance="10"
     gridtolerance="10"
     guidetolerance="10"
     inkscape:pageopacity="0"
     inkscape:pageshadow="2"
     inkscape:window-width="909"
     inkscape:window-height="582"
     id="namedview3242"
     showgrid="false"
     inkscape:zoom="0.1767767"
     inkscape:cx="405.50768"
     inkscape:cy="-154.63859"
     inkscape:window-x="544"
     inkscape:window-y="370"
     inkscape:window-maximized="0"
     inkscape:current-layer="svg3234" />
  <g
     transform="matrix(18.68858,0,0,18.68858,1350.37982,-2860.42284)"
     id="g3238"
     style="fill:#000000">
    <path
       d="m -58.3956,156.969 c -5.5392,0 -10.0515,4.8177 -10.0515,10.7844 0.0051,1.91327 1.887639,8.78956 7.2594,8.649 -2.5684,-1.7795 -4.3626,-4.4001 -4.3626,-7.3926 10e-6,-3.99 3.2041,-7.2245 7.1547,-7.2245 3.9506,0 7.1547,3.2345 7.1547,7.2245 -10e-6,2.9925 -1.7942,5.6131 -4.3626,7.3926 5.676834,0.11902 7.334539,-6.82722 7.2595,-8.649 -3e-5,-5.9667 -4.5123,-10.7844 -10.0515,-10.7844 z"
       id="path3240"
       style="fill:#000000"
       inkscape:connector-curvature="0"
       sodipodi:nodetypes="sccsssccss" />
  </g>
  <g
     id="g5557">
    <path
       inkscape:connector-curvature="0"
       id="path5001"
       d="m 316.1115,306.92371 c -21.62571,4.22595 -38.25036,29.85377 -33.71,51.26365 12.93251,22.15884 43.0182,12.11517 63.75207,12.66308 7.81679,1.59261 14.8141,-4.23929 10.30513,-11.78976 -8.09554,-19.71773 -18.09074,-44.02012 -39.21188,-52.22431 l -0.96065,0 -0.17467,0.0873 z"
       style="fill:#000000;fill-opacity:1;stroke:none" />
    <path
       inkscape:connector-curvature="0"
       id="path5513"
       d="m 246.8226,199.9425 c -11.23495,14.2007 -24.27499,31.65717 -25.23883,50.39033 9.12513,25.23106 48.76852,26.50142 65.06205,8.38384 9.73798,-25.19721 -13.98299,-47.91246 -27.94612,-66.37201 -5.53051,-1.87425 -7.91431,5.19177 -11.8771,7.59784 z"
       style="fill:#000000;fill-opacity:1;stroke:none" />
    <path
       inkscape:connector-curvature="0"
       id="path5515"
       d="m 253.7218,282.12153 c -23.85489,0.22213 -33.24101,33.54328 -14.23504,46.9844 18.00918,18.8564 51.24431,-5.60073 41.56982,-28.90676 -3.5055,-11.60095 -15.26535,-19.44594 -27.33478,-18.07764 z"
       style="fill:#000000;fill-opacity:1;stroke:none" />
    <path
       inkscape:connector-curvature="0"
       id="path5517"
       d="m 194.77296,306.74905 c -21.88611,5.28229 -28.70318,31.61378 -38.42588,49.16768 -7.79497,11.1728 6.65043,17.72409 16.24367,16.24368 17.94394,-0.73 42.37685,4.30378 55.36824,-10.91645 6.2991,-22.21504 -9.70155,-51.60513 -33.18603,-54.49491 z"
       style="fill:#000000;fill-opacity:1;stroke:none" />
  </g>
</svg>
