<?xml version="1.0" encoding="UTF-8" standalone="no"?>
<svg
   xmlns:dc="http://purl.org/dc/elements/1.1/"
   xmlns:cc="http://creativecommons.org/ns#"
   xmlns:rdf="http://www.w3.org/1999/02/22-rdf-syntax-ns#"
   xmlns:svg="http://www.w3.org/2000/svg"
   xmlns="http://www.w3.org/2000/svg"
   xmlns:sodipodi="http://sodipodi.sourceforge.net/DTD/sodipodi-0.dtd"
   xmlns:inkscape="http://www.inkscape.org/namespaces/inkscape"
   viewBox="0 0 512 512"
   id="svg3015"
   version="1.1"
   inkscape:version="0.48.4 r9939"
   width="100%"
   height="100%"
   sodipodi:docname="radar-dish.svg">
  <metadata
     id="metadata3043">
    <rdf:RDF>
      <cc:Work
         rdf:about="">
        <dc:format>image/svg+xml</dc:format>
        <dc:type
           rdf:resource="http://purl.org/dc/dcmitype/StillImage" />
      </cc:Work>
    </rdf:RDF>
  </metadata>
  <defs
     id="defs3041" />
  <sodipodi:namedview
     pagecolor="#ffffff"
     bordercolor="#666666"
     borderopacity="1"
     objecttolerance="10"
     gridtolerance="10"
     guidetolerance="10"
     inkscape:pageopacity="0"
     inkscape:pageshadow="2"
     inkscape:window-width="640"
     inkscape:window-height="480"
     id="namedview3039"
     showgrid="false"
     inkscape:zoom="0.4609375"
     inkscape:cx="242.50294"
     inkscape:cy="219.22579"
     inkscape:window-x="1856"
     inkscape:window-y="245"
     inkscape:window-maximized="0"
     inkscape:current-layer="svg3015" />
  <path
     style="fill:#000000;fill-opacity:1;stroke:none"
     d="m 225.66379,29.613559 c -37.38479,42.83473 -64.07325,98.124231 -61.26206,156.203191 -4.87793,85.7612 49.94835,167.87621 126.27901,204.0002 46.64708,23.44164 101.48894,27.46589 152.13559,16.27119 1.36941,-10.5638 -11.92502,-22.16112 -15.96277,-33.06588 C 360.88099,258.66227 294.88388,144.31642 228.91803,29.952542 l -1.55933,-0.949152 -1.69491,0.610169 z"
     id="path3045"
     inkscape:connector-curvature="0" />
  <path
     style="fill:#000000;fill-opacity:1;stroke:none"
     d="m 457.93498,112.32542 c -18.59905,0.66617 -29.46336,18.75463 -31.32204,35.59322 -30.33626,10.64899 -62.92737,16.65582 -91.66102,30.91526 -1.19448,9.54912 9.38471,18.23731 12.54238,27.25424 7.52819,10.40039 11.85768,24.81105 21.9661,32.67796 26.23198,-19.61902 47.73007,-46.75153 74.30508,-65.69491 21.4258,14.55095 53.81071,-5.41406 49.96611,-31.32204 -1.95513,-17.32462 -18.06245,-31.65717 -35.79661,-29.42373 z"
     id="path3047"
     inkscape:connector-curvature="0" />
  <path
     style="fill:#000000;fill-opacity:1;stroke:none"
     d="m 141.79938,220.7322 c -7.35277,1.51036 -23.98468,-0.61361 -20.20339,11.59322 1.89189,17.85667 5.82181,35.40836 8.88136,53.08475 -13.35204,13.95547 -30.613059,25.81313 -41.62712,41.01695 7.266924,9.86307 10.529976,24.79592 21.15254,31.38983 19.60047,-2.34727 37.82591,-11.75988 57.28814,-14.1017 -36.097,50.09289 -77.293512,97.53828 -113.423731,147.45763 4.714897,7.01839 17.059484,2.34572 24.406196,4.07112 26.824825,-0.0832 54.378375,2.81088 80.172925,-6.78593 20.19879,-4.15319 40.64597,-11.99104 60.68728,-13.89781 25.84594,10.08861 51.61335,24.43642 80.36072,20.81601 6.39253,-1.31456 22.70347,3.44782 21.62712,-7.72881 -3.85923,-23.76594 -5.02307,-48.62649 -11.93221,-71.59322 -5.02109,-5.06347 -13.61282,-9.06542 -20.54237,-8.20339 -3.35549,5.8268 0.81879,13.2457 0.0678,19.52542 -14.75163,-8.81201 -29.10406,-18.33092 -43.59322,-27.59322 4.30553,-1.94714 20.1877,-4.35896 12.20339,-11.05085 -8.31037,-8.25733 -20.04045,-12.59276 -31.1837,-6.84532 -11.22982,2.90974 -20.03623,-9.98688 -29.98036,-14.5388 -3.02125,-3.38455 -14.66729,-6.85878 -7.58171,-12.243 5.02411,-6.64655 16.18307,-16.3911 6.62842,-24.45811 -23.15784,-32.09945 -37.28247,-69.19631 -45.27248,-107.74528 -1.80067,-2.6024 -5.30264,-2.30616 -8.1356,-2.16949 z m 28.61017,158.98305 c 8.94416,2.18162 16.50399,8.86787 24,13.62712 -16.05569,6.73733 -33.01143,11.9346 -49.49152,17.9661 8.15645,-10.46643 15.81215,-22.94281 25.49152,-31.59322 z m 71.9322,44.94916 c 5.95645,4.4406 15.64476,9.3551 19.05085,14.30508 -14.94103,3.31603 -30.45356,9.01756 -45.49152,10.37288 -15.67879,-6.82815 -35.80759,-14.17098 -48.47458,-21.55932 16.68818,-6.9482 34.03352,-12.30509 51.05085,-18.44068 7.9548,5.10735 15.9096,10.21469 23.8644,15.32204 z m -117.42372,12.47457 c 19.03071,6.43691 37.75722,13.93137 56.20339,22.1017 -30.94462,8.28279 -62.08696,15.83416 -93.152546,23.66101 12.270146,-15.27525 23.733596,-31.35533 36.949156,-45.76271 z m 168.54237,18.71187 c 1.73429,8.70641 3.6608,17.50812 4.20339,26.37288 -14.21401,-5.29148 -28.26689,-11.57986 -42.23729,-17.69492 12.08205,-2.8084 26.86375,-9.26442 38.0339,-8.67796 z"
     id="path3049"
     inkscape:connector-curvature="0" />
</svg>
