<?xml version="1.0" encoding="UTF-8" standalone="no"?>
<!-- Created with Inkscape (http://www.inkscape.org/) -->

<svg
   xmlns:dc="http://purl.org/dc/elements/1.1/"
   xmlns:cc="http://creativecommons.org/ns#"
   xmlns:rdf="http://www.w3.org/1999/02/22-rdf-syntax-ns#"
   xmlns:svg="http://www.w3.org/2000/svg"
   xmlns="http://www.w3.org/2000/svg"
   xmlns:sodipodi="http://sodipodi.sourceforge.net/DTD/sodipodi-0.dtd"
   xmlns:inkscape="http://www.inkscape.org/namespaces/inkscape"
   width="32px"
   height="32px"
   id="svg4104"
   version="1.1"
   inkscape:version="0.48.4 r9939"
   sodipodi:docname="web.svg">
  <defs
     id="defs4106" />
  <sodipodi:namedview
     id="base"
     pagecolor="#ffffff"
     bordercolor="#666666"
     borderopacity="1.0"
     inkscape:pageopacity="0.0"
     inkscape:pageshadow="2"
     inkscape:zoom="8"
     inkscape:cx="19.103059"
     inkscape:cy="8.9718394"
     inkscape:current-layer="layer1"
     showgrid="true"
     inkscape:grid-bbox="true"
     inkscape:document-units="px"
     inkscape:window-width="813"
     inkscape:window-height="625"
     inkscape:window-x="452"
     inkscape:window-y="299"
     inkscape:window-maximized="0" />
  <metadata
     id="metadata4109">
    <rdf:RDF>
      <cc:Work
         rdf:about="">
        <dc:format>image/svg+xml</dc:format>
        <dc:type
           rdf:resource="http://purl.org/dc/dcmitype/StillImage" />
        <dc:title></dc:title>
      </cc:Work>
    </rdf:RDF>
  </metadata>
  <g
     id="layer1"
     inkscape:label="Layer 1"
     inkscape:groupmode="layer">
    <g
       id="g4140"
       style="fill:#000000">
      <path
         inkscape:connector-curvature="0"
         id="path4124"
         d="m 1.0780592,14.640661 0,-6.1875004 0.9375,0 0.9375,0 0,2.7108864 0,2.710886 0.3610447,-0.345902 c 1.0612772,-1.016768 2.6691519,-0.379183 3.0061198,1.192044 0.07306,0.340665 0.1328355,1.854122 0.1328355,3.363238 l 0,2.743848 -0.9375,0 -0.9375,0 0,-2.234375 c 0,-1.228907 -0.035918,-2.413966 -0.079818,-2.633466 -0.1049267,-0.524633 -0.5509649,-0.829758 -0.9223819,-0.630982 -0.5169985,0.276689 -0.6228,0.827918 -0.6228,3.244808 l 0,2.254015 -0.9375,0 -0.9375,0 0,-6.1875 z"
         style="fill:#000000;fill-opacity:1;stroke:#ffffff;stroke-width:0.12500000000000000;stroke-linecap:round;stroke-linejoin:miter;stroke-miterlimit:4;stroke-opacity:1;stroke-dasharray:none" />
      <path
         inkscape:connector-curvature="0"
         id="path4126"
         d="m 7.7030592,18.140661 c 0,-2.604167 -0.00775,-2.6875 -0.25,-2.6875 -0.2314815,0 -0.25,-0.08333 -0.25,-1.125 0,-1.041667 0.018518,-1.125 0.25,-1.125 0.2314815,0 0.25,-0.08333 0.25,-1.125 l 0,-1.125 0.9375,0 0.9375,0 0,1.125 0,1.125 0.4999998,0 0.5,0 0,1.125 0,1.125 -0.5,0 -0.4999998,0 0,2.6875 0,2.6875 -0.9375,0 -0.9375,0 0,-2.6875 z"
         style="fill:#000000;fill-opacity:1;stroke:#ffffff;stroke-width:0.12500000000000000;stroke-linecap:round;stroke-linejoin:miter;stroke-miterlimit:4;stroke-opacity:1;stroke-dasharray:none" />
      <path
         inkscape:connector-curvature="0"
         id="path4128"
         d="m 11.328059,18.140661 c 0,-2.604167 -0.0078,-2.6875 -0.25,-2.6875 -0.231481,0 -0.25,-0.08333 -0.25,-1.125 0,-1.041667 0.01852,-1.125 0.25,-1.125 0.231482,0 0.25,-0.08333 0.25,-1.125 l 0,-1.125 0.9375,0 0.9375,0 0,1.125 0,1.125 0.5,0 0.5,0 0,1.125 0,1.125 -0.5,0 -0.5,0 0,2.6875 0,2.6875 -0.9375,0 -0.9375,0 0,-2.6875 z"
         style="fill:#000000;fill-opacity:1;stroke:#ffffff;stroke-width:0.12500000000000000;stroke-linecap:round;stroke-linejoin:miter;stroke-miterlimit:4;stroke-opacity:1;stroke-dasharray:none" />
      <path
         inkscape:connector-curvature="0"
         id="path4130"
         d="m 14.828059,18.953161 0,-5.75 0.9375,0 c 0.887711,0 0.937711,0.01494 0.941476,0.28125 0.0034,0.24368 0.02432,0.255437 0.15625,0.08801 0.480144,-0.609303 1.382205,-0.797662 2.083436,-0.435041 0.534298,0.276296 1.219751,1.145235 1.470884,1.864616 0.166161,0.475976 0.222954,1.021476 0.222954,2.141487 0,1.451467 -0.01428,1.531823 -0.417824,2.35135 -0.536402,1.089335 -1.166941,1.583325 -2.020987,1.583325 -0.420008,0 -0.719223,-0.08851 -1.043745,-0.308733 l -0.454944,-0.308733 0,2.121233 0,2.121233 -0.9375,0 -0.9375,0 0,-5.75 z m 3.256924,-0.378706 c 0.765509,-0.409688 0.870381,-2.262251 0.163672,-2.891263 -1.207637,-1.074866 -2.274388,1.55254 -1.10509,2.721838 0.324436,0.324436 0.569402,0.368522 0.941418,0.169425 z"
         style="fill:#000000;fill-opacity:1;stroke:#ffffff;stroke-width:0.12500000000000000;stroke-linecap:round;stroke-linejoin:miter;stroke-miterlimit:4;stroke-opacity:1;stroke-dasharray:none" />
      <path
         inkscape:connector-curvature="0"
         id="path4132"
         d="m 21.629752,16.384076 c -0.24234,-0.580001 -0.119167,-1.255941 0.276052,-1.514899 0.677818,-0.444123 1.267189,0.565639 0.876254,1.501277 -0.161898,0.387476 -0.25074,0.457707 -0.578999,0.457707 -0.326093,0 -0.417264,-0.07062 -0.573307,-0.444085 z"
         style="fill:#000000;fill-opacity:1;stroke:#ffffff;stroke-width:0.12500000000000000;stroke-linecap:round;stroke-linejoin:miter;stroke-miterlimit:4;stroke-opacity:1;stroke-dasharray:none" />
      <path
         inkscape:connector-curvature="0"
         id="path4134"
         d="m 24.078059,20.978766 c 0,-0.05467 0.50625,-2.850565 1.125,-6.213105 0.61875,-3.36254 1.125,-6.1303125 1.125,-6.150605 0,-0.020292 0.196875,-0.036895 0.4375,-0.036895 0.240625,0 0.4375,0.061687 0.4375,0.1370816 0,0.1340324 -2.066361,11.5261254 -2.19144,12.0816684 -0.05081,0.225675 -0.149303,0.28125 -0.498441,0.28125 -0.239315,0 -0.435119,-0.04473 -0.435119,-0.0994 z"
         style="fill:#000000;fill-opacity:1;stroke:#ffffff;stroke-width:0.12500000000000000;stroke-linecap:round;stroke-linejoin:miter;stroke-miterlimit:4;stroke-opacity:1;stroke-dasharray:none" />
      <path
         inkscape:connector-curvature="0"
         id="path4136"
         d="m 27.122698,20.859411 c 0.03382,-0.120313 0.556472,-2.932813 1.161454,-6.25 l 1.099968,-6.0312504 0.454976,0 0.454977,0 -0.211183,1.15625 c -0.116151,0.6359374 -0.628816,3.4482454 -1.139257,6.2495734 l -0.928074,5.093324 -0.477173,3.75e-4 c -0.394643,4.04e-4 -0.466539,-0.03736 -0.415688,-0.218272 z"
         style="fill:#000000;fill-opacity:1;stroke:#ffffff;stroke-width:0.12500000000000000;stroke-linecap:round;stroke-linejoin:miter;stroke-miterlimit:4;stroke-opacity:1;stroke-dasharray:none" />
      <path
         inkscape:connector-curvature="0"
         id="path4138"
         d="m 21.810657,20.839205 c -0.573592,-0.464467 -0.277825,-1.886044 0.392402,-1.886044 0.670228,0 0.965995,1.421577 0.392402,1.886044 -0.162304,0.131426 -0.338885,0.238956 -0.392402,0.238956 -0.05352,0 -0.230098,-0.10753 -0.392402,-0.238956 z"
         style="fill:#000000;fill-opacity:1;stroke:#ffffff;stroke-width:0.12500000000000000;stroke-linecap:round;stroke-linejoin:miter;stroke-miterlimit:4;stroke-opacity:1;stroke-dasharray:none" />
    </g>
  </g>
</svg>
